<svg width="24" height="24" viewBox="0 0 24 24" fill="none" xmlns="http://www.w3.org/2000/svg">
<path fill-rule="evenodd" clip-rule="evenodd" d="M10.5512 6.43929C8.99526 4.85357 6.47866 4.85357 4.92276 6.43929C3.35908 8.03295 3.35908 10.6226 4.92276 12.2162L11.1078 18.5198C11.5978 19.0192 12.4022 19.0192 12.8922 18.5198L19.0772 12.2162C20.6409 10.6226 20.6409 8.03295 19.0772 6.43929C17.5213 4.85357 15.0047 4.85357 13.4489 6.43929L12.5353 7.37031C12.3943 7.51405 12.2014 7.59504 12 7.59504C11.7986 7.59504 11.6057 7.51405 11.4647 7.37031L10.5512 6.43929ZM11.6218 5.38875L12 5.77416L12.3782 5.38875C14.5221 3.20375 18.004 3.20375 20.1479 5.38875C22.284 7.5658 22.284 11.0897 20.1479 13.2668L13.9629 19.5703C12.8849 20.669 11.1151 20.669 10.0371 19.5703L3.85208 13.2668C1.71597 11.0897 1.71597 7.5658 3.85208 5.38875C5.99598 3.20375 9.47793 3.20375 11.6218 5.38875Z" fill="#EE0F32"/>
</svg>
