<svg width="38" height="38" viewBox="0 0 38 38" fill="none" xmlns="http://www.w3.org/2000/svg">
<path d="M13.8542 6.33334C13.8542 5.6775 13.3225 5.14584 12.6667 5.14584C12.0108 5.14584 11.4792 5.6775 11.4792 6.33334H13.8542ZM11.4792 11.0833C11.4792 11.7392 12.0108 12.2708 12.6667 12.2708C13.3225 12.2708 13.8542 11.7392 13.8542 11.0833H11.4792ZM26.5208 6.33334C26.5208 5.6775 25.9892 5.14584 25.3333 5.14584C24.6775 5.14584 24.1458 5.6775 24.1458 6.33334H26.5208ZM24.1458 11.0833C24.1458 11.7392 24.6775 12.2708 25.3333 12.2708C25.9892 12.2708 26.5208 11.7392 26.5208 11.0833H24.1458ZM14.9777 21.5107L14.1534 22.3655L14.1597 22.3715L14.9777 21.5107ZM19 18.4444L18.0548 19.1633C18.2794 19.4586 18.629 19.6319 19 19.6319C19.371 19.6319 19.7206 19.4586 19.9452 19.1633L19 18.4444ZM22.9547 21.5736L22.1621 20.6893C22.1534 20.6971 22.1449 20.7049 22.1365 20.7129L22.9547 21.5736ZM19 25.3333L18.1819 26.1941C18.6404 26.6298 19.3599 26.6297 19.8182 26.194L19 25.3333ZM11.4792 6.33334V11.0833H13.8542V6.33334H11.4792ZM24.1458 6.33334V11.0833H26.5208V6.33334H24.1458ZM15.802 20.6559C15.5636 20.426 15.4375 20.1369 15.4375 19.8357H13.0625C13.0625 20.8347 13.4904 21.7261 14.1534 22.3655L15.802 20.6559ZM15.4375 19.8357C15.4375 19.2399 15.9878 18.6042 16.8625 18.6042V16.2292C14.8515 16.2292 13.0625 17.7594 13.0625 19.8357H15.4375ZM16.8625 18.6042C17.3815 18.6042 17.8105 18.842 18.0548 19.1633L19.9452 17.7255C19.2439 16.8035 18.1105 16.2292 16.8625 16.2292V18.6042ZM19.9452 19.1633C20.1895 18.842 20.6185 18.6042 21.1375 18.6042V16.2292C19.8895 16.2292 18.7561 16.8035 18.0548 17.7255L19.9452 19.1633ZM21.1375 18.6042C22.0122 18.6042 22.5625 19.2399 22.5625 19.8357H24.9375C24.9375 17.7594 23.1485 16.2292 21.1375 16.2292V18.6042ZM22.5625 19.8357C22.5625 20.1511 22.4239 20.4546 22.1621 20.6893L23.7473 22.4578C24.4665 21.8131 24.9375 20.8845 24.9375 19.8357H22.5625ZM22.1365 20.7129L18.1818 24.4727L19.8182 26.194L23.7729 22.4342L22.1365 20.7129ZM19.8181 24.4726L15.7958 20.6499L14.1597 22.3715L18.1819 26.1941L19.8181 24.4726ZM7.91667 34.4375H30.0833V32.0625H7.91667V34.4375ZM30.0833 34.4375C32.4881 34.4375 34.4375 32.4881 34.4375 30.0833H32.0625C32.0625 31.1764 31.1764 32.0625 30.0833 32.0625V34.4375ZM34.4375 30.0833V12.6667H32.0625V30.0833H34.4375ZM34.4375 12.6667C34.4375 10.2619 32.4881 8.3125 30.0833 8.3125V10.6875C31.1764 10.6875 32.0625 11.5736 32.0625 12.6667H34.4375ZM30.0833 8.3125H7.91667V10.6875H30.0833V8.3125ZM7.91667 8.3125C5.51193 8.3125 3.5625 10.2619 3.5625 12.6667H5.9375C5.9375 11.5736 6.8236 10.6875 7.91667 10.6875V8.3125ZM3.5625 12.6667V30.0833H5.9375V12.6667H3.5625ZM3.5625 30.0833C3.5625 32.4881 5.51194 34.4375 7.91667 34.4375V32.0625C6.82359 32.0625 5.9375 31.1764 5.9375 30.0833H3.5625Z" fill="#EE0F32"/>
</svg>
