<svg width="24" height="24" viewBox="0 0 24 24" fill="none" xmlns="http://www.w3.org/2000/svg">
<path fill-rule="evenodd" clip-rule="evenodd" d="M7.2 10.306L9.4577 7.08071C9.81067 6.57646 10 5.97584 10 5.36033V3.79626C10 2.57115 11.2002 1.70607 12.3625 2.09348C14.4572 2.79173 15.7326 4.91012 15.3696 7.08811L15 9.30599L20.4394 9.30832C21.7402 9.30888 22.6944 10.5315 22.3788 11.7935L20.5682 19.0338C20.2343 20.3692 19.0344 21.306 17.6578 21.306H5C3.34315 21.306 2 19.9628 2 18.306V13.306C2 11.6491 3.34315 10.306 5 10.306H7.2ZM13.5204 9.05939C13.4479 9.49421 13.5704 9.9389 13.8553 10.2753C14.1401 10.6117 14.5585 10.8058 14.9994 10.806L20.4388 10.8083C20.764 10.8085 21.0025 11.1141 20.9236 11.4296L19.113 18.6699C18.946 19.3376 18.3461 19.806 17.6578 19.806H8V11.7788L10.6865 7.94091C11.216 7.18453 11.5 6.2836 11.5 5.36033V3.79626C11.5 3.59498 11.6972 3.45286 11.8881 3.51651C13.2826 3.98134 14.1317 5.39159 13.8901 6.84151L13.5204 9.05939ZM6.5 11.806H5C4.17157 11.806 3.5 12.4776 3.5 13.306V18.306C3.5 19.1344 4.17157 19.806 5 19.806H6.5V11.806Z" fill="white"/>
</svg>
