<svg width="12" height="20" viewBox="0 0 12 20" fill="none" xmlns="http://www.w3.org/2000/svg">
<path d="M5.3208 18.7354C5.72363 19.0796 6.26562 19.1162 6.63916 18.7427L8.90234 16.4868C9.26855 16.1133 9.26123 15.5347 8.8877 15.1685L7.91357 14.187L9.41504 12.6855C9.77393 12.3193 9.77393 11.7407 9.40771 11.3672L8.08203 10.0415C10.0156 9.01611 11.0923 7.36084 11.0923 5.42725C11.0923 2.60742 8.81445 0.32959 5.97998 0.32959C3.13818 0.32959 0.867676 2.6001 0.867676 5.42725C0.867676 7.41943 1.98828 9.20654 3.77539 10.0562V16.853C3.77539 17.146 3.87061 17.4902 4.12695 17.71L5.3208 18.7354ZM5.97998 17.168L5.21094 16.4062V8.88428C3.63623 8.56201 2.43506 7.14111 2.43506 5.42725C2.43506 3.479 4.01709 1.9043 5.97998 1.9043C7.93555 1.9043 9.51025 3.479 9.51025 5.42725C9.51025 7.12646 8.30176 8.56934 6.49268 8.9209V10.686L7.83301 12.041L6.43408 13.418V14.9414L7.32031 15.813L5.97998 17.168ZM5.97998 5.41992C6.66846 5.41992 7.2251 4.85596 7.2251 4.1748C7.2251 3.48633 6.66846 2.92969 5.97998 2.92969C5.28418 2.92969 4.73486 3.479 4.73486 4.1748C4.73486 4.85596 5.2915 5.41992 5.97998 5.41992Z" fill="#3C3C43"/>
</svg>
