<svg width="14" height="15" viewBox="0 0 14 15" fill="none" xmlns="http://www.w3.org/2000/svg">
<path d="M7.38623 7.92432C9.21729 7.92432 10.6748 6.34229 10.6748 4.36475C10.6748 2.4458 9.20264 0.885742 7.38623 0.885742C5.58447 0.885742 4.09766 2.46045 4.10498 4.37207C4.1123 6.34229 5.5625 7.92432 7.38623 7.92432ZM7.38623 6.33496C6.48535 6.33496 5.73096 5.48535 5.73096 4.37207C5.72363 3.31006 6.49268 2.4751 7.38623 2.4751C8.29443 2.4751 9.04883 3.30273 9.04883 4.36475C9.04883 5.47803 8.30176 6.33496 7.38623 6.33496ZM2.88916 14.7944H11.8906C13.2383 14.7944 13.9048 14.333 13.9048 13.3662C13.9048 11.1836 11.2241 8.67139 7.38623 8.67139C3.54834 8.67139 0.867676 11.1836 0.867676 13.3662C0.867676 14.333 1.53418 14.7944 2.88916 14.7944ZM2.87451 13.2051C2.73535 13.2051 2.68408 13.1465 2.68408 13.0439C2.68408 12.0771 4.40527 10.2607 7.38623 10.2607C10.3672 10.2607 12.0884 12.0771 12.0884 13.0439C12.0884 13.1465 12.0444 13.2051 11.8979 13.2051H2.87451Z" fill="#3C3C43"/>
</svg>
