<svg width="18" height="12" viewBox="0 0 18 12" fill="none" xmlns="http://www.w3.org/2000/svg">
<path fill-rule="evenodd" clip-rule="evenodd" d="M9.32845 2.61517C11.7846 2.61526 14.1467 3.46937 15.9268 5.00097C16.0608 5.11921 16.2751 5.11772 16.4071 4.99762L17.6884 3.82729C17.7552 3.76638 17.7925 3.68387 17.792 3.59802C17.7914 3.51217 17.7531 3.43006 17.6854 3.36986C13.0134 -0.682369 5.64275 -0.682369 0.970722 3.36986C0.903045 3.43002 0.864645 3.5121 0.864021 3.59795C0.863397 3.6838 0.9006 3.76634 0.967397 3.82729L2.24908 4.99762C2.38101 5.1179 2.59543 5.11939 2.72939 5.00097C4.50965 3.46927 6.87211 2.61516 9.32845 2.61517ZM9.32845 6.42275C10.6779 6.42267 11.9792 6.87663 12.9795 7.6964C13.1148 7.81275 13.3279 7.81023 13.4598 7.69072L14.7397 6.52039C14.8071 6.459 14.8445 6.37572 14.8435 6.28919C14.8425 6.20265 14.8033 6.12008 14.7345 6.05995C11.6884 3.49554 6.9711 3.49554 3.92499 6.05995C3.85619 6.12008 3.81693 6.20269 3.81603 6.28926C3.81512 6.37582 3.85265 6.45909 3.92019 6.52039L5.19965 7.69072C5.33154 7.81023 5.54467 7.81275 5.67996 7.6964C6.6796 6.87717 7.97987 6.42326 9.32845 6.42275ZM11.8922 8.98459C11.8941 9.07136 11.8564 9.15503 11.788 9.21583L9.57415 11.2378C9.50925 11.2972 9.42077 11.3307 9.32845 11.3307C9.23613 11.3307 9.14765 11.2972 9.08276 11.2378L6.86854 9.21583C6.80014 9.15498 6.76252 9.07129 6.76454 8.98451C6.76657 8.89773 6.80808 8.81556 6.87926 8.75739C8.2931 7.67512 10.3638 7.67512 11.7776 8.75739C11.8488 8.81561 11.8902 8.89781 11.8922 8.98459Z" fill="white"/>
</svg>
    