<svg width="88" height="15" viewBox="0 0 88 15" fill="none" xmlns="http://www.w3.org/2000/svg">
<path d="M5.4375 13.2891C8.15625 13.2891 10.0859 11.6797 10.3281 9.32031L10.3359 9.23438H8.03906L8.02344 9.29688C7.77344 10.5 6.79688 11.2891 5.44531 11.2891C3.66406 11.2891 2.5625 9.78906 2.5625 7.36719V7.35156C2.5625 4.92969 3.66406 3.4375 5.4375 3.4375C6.78125 3.4375 7.78906 4.29688 8.03125 5.5625V5.61719H10.3281V5.52344C10.1094 3.14062 8.10938 1.4375 5.4375 1.4375C2.16406 1.4375 0.148438 3.69531 0.148438 7.35156V7.36719C0.148438 11.0234 2.17188 13.2891 5.4375 13.2891ZM16.1016 13.1797C18.75 13.1797 20.3438 11.5078 20.3438 8.70312V8.6875C20.3438 5.90625 18.7266 4.21094 16.1016 4.21094C13.4766 4.21094 11.8594 5.91406 11.8594 8.6875V8.70312C11.8594 11.5 13.4531 13.1797 16.1016 13.1797ZM16.1016 11.3906C14.8828 11.3906 14.1953 10.3984 14.1953 8.70312V8.6875C14.1953 7.00781 14.8906 6 16.1016 6C17.3047 6 18.0078 7.00781 18.0078 8.6875V8.70312C18.0078 10.3984 17.3125 11.3906 16.1016 11.3906ZM22.2031 13H24.4844V8.02344C24.4844 6.85938 25.125 6.10156 26.1797 6.10156C27.2578 6.10156 27.7578 6.74219 27.7578 7.95312V13H30.0391V7.4375C30.0391 5.38281 29.0078 4.21094 27.0938 4.21094C25.8672 4.21094 25.0156 4.79688 24.625 5.72656H24.4844V4.39844H22.2031V13ZM35.8203 13.0312C36.2578 13.0312 36.6797 12.9844 36.9609 12.9297V11.2344C36.7422 11.2578 36.5859 11.2734 36.2891 11.2734C35.5156 11.2734 35.1875 10.9297 35.1875 10.1562V6.11719H36.9609V4.39844H35.1875V2.34375H32.8828V4.39844H31.5547V6.11719H32.8828V10.6797C32.8828 12.3516 33.7266 13.0312 35.8203 13.0312ZM40.0234 3.07812C40.7266 3.07812 41.3047 2.51562 41.3047 1.8125C41.3047 1.10156 40.7266 0.539062 40.0234 0.539062C39.3203 0.539062 38.7344 1.10156 38.7344 1.8125C38.7344 2.51562 39.3203 3.07812 40.0234 3.07812ZM38.875 13H41.1562V4.39844H38.875V13ZM43.4531 13H45.7344V8.02344C45.7344 6.85938 46.375 6.10156 47.4297 6.10156C48.5078 6.10156 49.0078 6.74219 49.0078 7.95312V13H51.2891V7.4375C51.2891 5.38281 50.2578 4.21094 48.3438 4.21094C47.1172 4.21094 46.2656 4.79688 45.875 5.72656H45.7344V4.39844H43.4531V13ZM56.3438 13.1797C57.5703 13.1797 58.4453 12.6094 58.8359 11.6719H58.9766V13H61.2578V4.39844H58.9766V9.36719C58.9766 10.5312 58.3672 11.2891 57.2422 11.2891C56.1641 11.2891 55.7031 10.6562 55.7031 9.4375V4.39844H53.4219V9.96094C53.4219 12.0078 54.4141 13.1797 56.3438 13.1797ZM67.3281 13.1797C69.8438 13.1797 70.9531 11.7266 71.2188 10.6484L71.2344 10.5703H69.1094L69.0859 10.6172C68.9297 10.9453 68.375 11.4766 67.375 11.4766C66.1641 11.4766 65.4062 10.6562 65.3828 9.24219H71.3047V8.53125C71.3047 5.92969 69.7422 4.21094 67.2344 4.21094C64.7266 4.21094 63.125 5.96875 63.125 8.70312V8.71094C63.125 11.4688 64.7109 13.1797 67.3281 13.1797ZM67.2734 5.92188C68.2656 5.92188 68.9766 6.5625 69.1172 7.8125H65.4062C65.5469 6.59375 66.2812 5.92188 67.2734 5.92188ZM87.8281 7.35938C87.8203 6.94531 87.6797 6.61719 87.3438 6.28906L81.4609 0.539062C81.2109 0.296875 80.9219 0.171875 80.5625 0.171875C79.8438 0.171875 79.25 0.757812 79.25 1.46875C79.25 1.82812 79.3984 2.15625 79.6719 2.42969L84.7656 7.35156L79.6719 12.2891C79.3984 12.5547 79.25 12.8828 79.25 13.25C79.25 13.9609 79.8438 14.5469 80.5625 14.5469C80.9141 14.5469 81.2109 14.4297 81.4609 14.1797L87.3438 8.42969C87.6797 8.10156 87.8281 7.76562 87.8281 7.35938Z" fill="white"/>
</svg>
