<svg width="20" height="12" viewBox="0 0 20 12" fill="none" xmlns="http://www.w3.org/2000/svg">
<path fill-rule="evenodd" clip-rule="evenodd" d="M18.2399 0.666687H17.1359C16.5262 0.666687 16.032 1.1144 16.032 1.66669V10.3334C16.032 10.8856 16.5262 11.3334 17.1359 11.3334H18.2399C18.8497 11.3334 19.3439 10.8856 19.3439 10.3334V1.66669C19.3439 1.1144 18.8497 0.666687 18.2399 0.666687ZM11.9839 3.00002H13.088C13.6977 3.00002 14.192 3.44774 14.192 4.00002V10.3334C14.192 10.8856 13.6977 11.3334 13.088 11.3334H11.9839C11.3742 11.3334 10.8799 10.8856 10.8799 10.3334V4.00002C10.8799 3.44774 11.3742 3.00002 11.9839 3.00002ZM7.93594 5.33335H6.83194C6.22222 5.33335 5.72794 5.78107 5.72794 6.33335V10.3334C5.72794 10.8856 6.22222 11.3334 6.83194 11.3334H7.93594C8.54567 11.3334 9.03995 10.8856 9.03995 10.3334V6.33335C9.03995 5.78107 8.54567 5.33335 7.93594 5.33335ZM2.78394 7.33335H1.67993C1.07021 7.33335 0.575928 7.78107 0.575928 8.33335V10.3334C0.575928 10.8856 1.07021 11.3334 1.67993 11.3334H2.78394C3.39366 11.3334 3.88794 10.8856 3.88794 10.3334V8.33335C3.88794 7.78107 3.39366 7.33335 2.78394 7.33335Z" fill="white"/>
</svg>
