<svg width="342" height="16" viewBox="0 0 342 16" fill="none" xmlns="http://www.w3.org/2000/svg">
<line y1="8.5" x2="148" y2="8.5" stroke="white" stroke-opacity="0.4" stroke-dasharray="3 3"/>
<line x1="194" y1="8.5" x2="342" y2="8.5" stroke="white" stroke-opacity="0.4" stroke-dasharray="3 3"/>
<path d="M169.175 13.1641C172.025 13.1641 173.796 11.2021 173.796 8.07129V8.05762C173.796 4.93359 172.019 2.97168 169.175 2.97168C166.338 2.97168 164.554 4.92676 164.554 8.05762V8.07129C164.554 11.209 166.331 13.1641 169.175 13.1641ZM169.175 11.8105C167.302 11.8105 166.112 10.3682 166.112 8.07129V8.05762C166.112 5.76074 167.309 4.3252 169.175 4.3252C171.048 4.3252 172.23 5.76758 172.23 8.05762V8.07129C172.23 10.3477 171.068 11.8105 169.175 11.8105ZM175.081 13H176.558V8.71387C176.558 7.64062 177.146 7.01855 178.096 7.01855C178.383 7.01855 178.643 7.05273 178.759 7.10059V5.72656C178.643 5.70605 178.458 5.67188 178.246 5.67188C177.426 5.67188 176.824 6.19824 176.592 7.03906H176.558V5.80859H175.081V13Z" fill="white"/>
</svg>
