<svg width="414" height="44" viewBox="0 0 414 44" fill="none" xmlns="http://www.w3.org/2000/svg">
<rect opacity="0.35" x="375.833" y="17.8333" width="21" height="10.3333" rx="2.16667" stroke="white"/>
<path opacity="0.4" d="M398.333 21V25C399.138 24.6612 399.661 23.8731 399.661 23C399.661 22.1269 399.138 21.3388 398.333 21Z" fill="white"/>
<rect x="377.333" y="19.3333" width="18" height="7.33333" rx="1.33333" fill="white"/>
<path fill-rule="evenodd" clip-rule="evenodd" d="M357.328 19.6152C359.785 19.6153 362.147 20.4694 363.927 22.001C364.061 22.1192 364.275 22.1177 364.407 21.9976L365.688 20.8273C365.755 20.7664 365.793 20.6839 365.792 20.598C365.791 20.5122 365.753 20.4301 365.685 20.3699C361.013 16.3176 353.643 16.3176 348.971 20.3699C348.903 20.43 348.865 20.5121 348.864 20.598C348.863 20.6838 348.901 20.7663 348.967 20.8273L350.249 21.9976C350.381 22.1179 350.595 22.1194 350.729 22.001C352.51 20.4693 354.872 19.6152 357.328 19.6152ZM357.328 23.4227C358.678 23.4227 359.979 23.8766 360.98 24.6964C361.115 24.8127 361.328 24.8102 361.46 24.6907L362.74 23.5204C362.807 23.459 362.844 23.3757 362.843 23.2892C362.843 23.2027 362.803 23.1201 362.734 23.0599C359.688 20.4955 354.971 20.4955 351.925 23.0599C351.856 23.1201 351.817 23.2027 351.816 23.2893C351.815 23.3758 351.853 23.4591 351.92 23.5204L353.2 24.6907C353.332 24.8102 353.545 24.8127 353.68 24.6964C354.68 23.8772 355.98 23.4233 357.328 23.4227ZM359.892 25.9846C359.894 26.0714 359.856 26.155 359.788 26.2158L357.574 28.2378C357.509 28.2972 357.421 28.3307 357.328 28.3307C357.236 28.3307 357.148 28.2972 357.083 28.2378L354.869 26.2158C354.8 26.155 354.763 26.0713 354.765 25.9845C354.767 25.8977 354.808 25.8156 354.879 25.7574C356.293 24.6751 358.364 24.6751 359.778 25.7574C359.849 25.8156 359.89 25.8978 359.892 25.9846Z" fill="white"/>
<path fill-rule="evenodd" clip-rule="evenodd" d="M342.24 17.6667H341.136C340.526 17.6667 340.032 18.1144 340.032 18.6667V27.3334C340.032 27.8856 340.526 28.3334 341.136 28.3334H342.24C342.85 28.3334 343.344 27.8856 343.344 27.3334V18.6667C343.344 18.1144 342.85 17.6667 342.24 17.6667ZM335.984 20H337.088C337.698 20 338.192 20.4477 338.192 21V27.3334C338.192 27.8856 337.698 28.3334 337.088 28.3334H335.984C335.374 28.3334 334.88 27.8856 334.88 27.3334V21C334.88 20.4477 335.374 20 335.984 20ZM331.936 22.3334H330.832C330.222 22.3334 329.728 22.7811 329.728 23.3334V27.3334C329.728 27.8856 330.222 28.3334 330.832 28.3334H331.936C332.546 28.3334 333.04 27.8856 333.04 27.3334V23.3334C333.04 22.7811 332.546 22.3334 331.936 22.3334ZM326.784 24.3334H325.68C325.07 24.3334 324.576 24.7811 324.576 25.3334V27.3334C324.576 27.8856 325.07 28.3334 325.68 28.3334H326.784C327.394 28.3334 327.888 27.8856 327.888 27.3334V25.3334C327.888 24.7811 327.394 24.3334 326.784 24.3334Z" fill="white"/>
<path d="M37.2146 17.5008C34.9222 17.5008 33.2889 19.0682 33.2889 21.2142V21.2288C33.2889 23.2357 34.7098 24.7151 36.7386 24.7151C38.1888 24.7151 39.1116 23.9754 39.4998 23.1404H39.6463C39.6463 23.221 39.639 23.3016 39.639 23.3821C39.5584 25.4036 38.8479 27.0443 37.1707 27.0443C36.2405 27.0443 35.5887 26.5609 35.3104 25.8211L35.2884 25.7479H33.428L33.4427 25.8284C33.7796 27.4471 35.2298 28.597 37.1707 28.597C39.8294 28.597 41.4334 26.4876 41.4334 22.928V22.9134C41.4334 19.1048 39.4705 17.5008 37.2146 17.5008ZM37.2073 23.265C36.0062 23.265 35.1346 22.386 35.1346 21.1629V21.1483C35.1346 19.9691 36.0647 19.0389 37.2293 19.0389C38.4012 19.0389 39.3167 19.9837 39.3167 21.1922V21.2068C39.3167 22.4007 38.4012 23.265 37.2073 23.265ZM44.4586 21.4852C45.1324 21.4852 45.6231 20.9725 45.6231 20.3279C45.6231 19.6761 45.1324 19.1707 44.4586 19.1707C43.7921 19.1707 43.294 19.6761 43.294 20.3279C43.294 20.9725 43.7921 21.4852 44.4586 21.4852ZM44.4586 26.9197C45.1324 26.9197 45.6231 26.4144 45.6231 25.7625C45.6231 25.1107 45.1324 24.6053 44.4586 24.6053C43.7921 24.6053 43.294 25.1107 43.294 25.7625C43.294 26.4144 43.7921 26.9197 44.4586 26.9197ZM52.6107 28.3333H54.4198V26.3045H55.8407V24.7444H54.4198V17.7645H51.7465C50.3109 19.9471 48.8095 22.3787 47.4398 24.7591V26.3045H52.6107V28.3333ZM49.1977 24.7884V24.6785C50.223 22.8841 51.4462 20.9285 52.5302 19.2733H52.64V24.7884H49.1977ZM59.9206 28.3333H61.8103V17.7645H59.9279L57.1667 19.7054V21.4852L59.7961 19.6248H59.9206V28.3333Z" fill="white"/>
</svg>
