<svg width="32" height="30" viewBox="0 0 32 30" fill="none" xmlns="http://www.w3.org/2000/svg">
<path d="M10.8542 1.33334C10.8542 0.677498 10.3225 0.145836 9.66667 0.145836C9.01083 0.145836 8.47917 0.677498 8.47917 1.33334H10.8542ZM8.47917 6.08334C8.47917 6.73917 9.01083 7.27084 9.66667 7.27084C10.3225 7.27084 10.8542 6.73917 10.8542 6.08334H8.47917ZM23.5208 1.33334C23.5208 0.677498 22.9892 0.145836 22.3333 0.145836C21.6775 0.145836 21.1458 0.677498 21.1458 1.33334H23.5208ZM21.1458 6.08334C21.1458 6.73917 21.6775 7.27084 22.3333 7.27084C22.9892 7.27084 23.5208 6.73917 23.5208 6.08334H21.1458ZM11.9777 16.5107L11.1534 17.3655L11.1597 17.3715L11.9777 16.5107ZM16 13.4444L15.0548 14.1633C15.2794 14.4586 15.629 14.6319 16 14.6319C16.371 14.6319 16.7206 14.4586 16.9452 14.1633L16 13.4444ZM19.9547 16.5736L19.1621 15.6893C19.1534 15.6971 19.1449 15.7049 19.1365 15.7129L19.9547 16.5736ZM16 20.3333L15.1819 21.1941C15.6404 21.6298 16.3599 21.6297 16.8182 21.194L16 20.3333ZM8.47917 1.33334V6.08334H10.8542V1.33334H8.47917ZM21.1458 1.33334V6.08334H23.5208V1.33334H21.1458ZM12.802 15.6559C12.5636 15.426 12.4375 15.1369 12.4375 14.8357H10.0625C10.0625 15.8347 10.4904 16.7261 11.1534 17.3655L12.802 15.6559ZM12.4375 14.8357C12.4375 14.2399 12.9878 13.6042 13.8625 13.6042V11.2292C11.8515 11.2292 10.0625 12.7594 10.0625 14.8357H12.4375ZM13.8625 13.6042C14.3815 13.6042 14.8105 13.842 15.0548 14.1633L16.9452 12.7255C16.2439 11.8035 15.1105 11.2292 13.8625 11.2292V13.6042ZM16.9452 14.1633C17.1895 13.842 17.6185 13.6042 18.1375 13.6042V11.2292C16.8895 11.2292 15.7561 11.8035 15.0548 12.7255L16.9452 14.1633ZM18.1375 13.6042C19.0122 13.6042 19.5625 14.2399 19.5625 14.8357H21.9375C21.9375 12.7594 20.1485 11.2292 18.1375 11.2292V13.6042ZM19.5625 14.8357C19.5625 15.1511 19.4239 15.4546 19.1621 15.6893L20.7473 17.4578C21.4665 16.8131 21.9375 15.8845 21.9375 14.8357H19.5625ZM19.1365 15.7129L15.1818 19.4727L16.8182 21.194L20.7729 17.4342L19.1365 15.7129ZM16.8181 19.4726L12.7958 15.6499L11.1597 17.3715L15.1819 21.1941L16.8181 19.4726ZM4.91667 29.4375H27.0833V27.0625H4.91667V29.4375ZM27.0833 29.4375C29.4881 29.4375 31.4375 27.4881 31.4375 25.0833H29.0625C29.0625 26.1764 28.1764 27.0625 27.0833 27.0625V29.4375ZM31.4375 25.0833V7.66667H29.0625V25.0833H31.4375ZM31.4375 7.66667C31.4375 5.26194 29.4881 3.3125 27.0833 3.3125V5.6875C28.1764 5.6875 29.0625 6.57359 29.0625 7.66667H31.4375ZM27.0833 3.3125H4.91667V5.6875H27.0833V3.3125ZM4.91667 3.3125C2.51193 3.3125 0.5625 5.26193 0.5625 7.66667H2.9375C2.9375 6.57361 3.8236 5.6875 4.91667 5.6875V3.3125ZM0.5625 7.66667V25.0833H2.9375V7.66667H0.5625ZM0.5625 25.0833C0.5625 27.4881 2.51194 29.4375 4.91667 29.4375V27.0625C3.82359 27.0625 2.9375 26.1764 2.9375 25.0833H0.5625Z" fill="#EE0F32"/>
</svg>
