<svg width="20" height="16" viewBox="0 0 20 16" fill="none" xmlns="http://www.w3.org/2000/svg">
<path fill-rule="evenodd" clip-rule="evenodd" d="M0 3C0 1.34315 1.34315 0 3 0H17C18.6569 0 20 1.34315 20 3V13C20 14.6569 18.6569 16 17 16H3C1.34315 16 0 14.6569 0 13V3ZM3 1.5H17C17.6497 1.5 18.203 1.91311 18.4114 2.49101L10.6934 7.63638C10.2735 7.91629 9.72651 7.91629 9.30663 7.63638L1.58857 2.491C1.79701 1.91311 2.35026 1.5 3 1.5ZM1.5 4.23473V13C1.5 13.8284 2.17157 14.5 3 14.5H17C17.8284 14.5 18.5 13.8284 18.5 13V4.23474L11.5254 8.88445C10.6017 9.50027 9.39831 9.50027 8.47458 8.88445L1.5 4.23473Z" fill="#1A1D32"/>
</svg>
