<svg width="20" height="18" viewBox="0 0 20 18" fill="none" xmlns="http://www.w3.org/2000/svg">
<path fill-rule="evenodd" clip-rule="evenodd" d="M8.55115 3.43929C6.99526 1.85357 4.47866 1.85357 2.92276 3.43929C1.35908 5.03295 1.35908 7.62257 2.92276 9.21623L9.10777 15.5198C9.59777 16.0192 10.4022 16.0192 10.8922 15.5198L17.0772 9.21623C18.6409 7.62257 18.6409 5.03295 17.0772 3.43929C15.5213 1.85357 13.0047 1.85357 11.4489 3.43929L10.5353 4.37031C10.3943 4.51405 10.2014 4.59504 10 4.59504C9.79862 4.59504 9.6057 4.51405 9.46466 4.37031L8.55115 3.43929ZM9.62183 2.38875L10 2.77416L10.3782 2.38875C12.5221 0.203751 16.004 0.203751 18.1479 2.38875C20.284 4.5658 20.284 8.08971 18.1479 10.2668L11.9629 16.5703C10.8849 17.669 9.11509 17.669 8.03708 16.5703L1.85208 10.2668C-0.284027 8.08971 -0.284027 4.5658 1.85208 2.38875C3.99598 0.203751 7.47793 0.203751 9.62183 2.38875Z" fill="#EE0F32"/>
</svg>
