<svg width="20" height="20" viewBox="0 0 20 20" fill="none" xmlns="http://www.w3.org/2000/svg">
<path fill-rule="evenodd" clip-rule="evenodd" d="M14.1762 11.8702L14.1278 11.9348C14.0612 12.0235 13.9639 12.1529 13.8415 12.3151C13.5965 12.6397 13.2511 13.0955 12.8496 13.6198C12.045 14.6707 11.0221 15.988 10.1335 17.0749C10.0906 17.1273 10.0435 17.1435 10.0005 17.1435C9.95737 17.1435 9.9103 17.1273 9.86743 17.0748C8.98161 15.9903 7.96087 14.6748 7.15768 13.6251C6.75695 13.1013 6.41207 12.646 6.16746 12.3217C6.04518 12.1596 5.94802 12.0303 5.88155 11.9417L5.78012 11.8063C5.78012 11.8063 5.77979 11.8058 5.75853 11.8217L5.78012 11.8063C5.77143 11.7947 5.76222 11.7827 5.75313 11.7714L5.7482 11.7653C5.74825 11.7653 5.74814 11.7652 5.7482 11.7653C5.00076 10.8328 4.55434 9.65126 4.55434 8.36232C4.55434 5.35477 6.99244 2.91667 9.99999 2.91667C13.0075 2.91667 15.4456 5.35477 15.4456 8.36232C15.4456 9.65137 14.9993 10.8327 14.2518 11.7653C14.2246 11.7992 14.1994 11.8342 14.1762 11.8702ZM15.2295 12.5491C15.2289 12.5499 15.2281 12.551 15.2271 12.5523C15.1911 12.6005 14.9063 12.981 14.4769 13.5469C13.6428 14.6462 12.2631 16.4449 11.1012 17.8661C10.5261 18.5695 9.47409 18.5693 8.89931 17.8655C7.10235 15.6654 4.7783 12.5539 4.7783 12.5539L4.77288 12.5471C3.85398 11.4008 3.30434 9.94576 3.30434 8.36232C3.30434 4.66442 6.30208 1.66667 9.99999 1.66667C13.6979 1.66667 16.6956 4.66442 16.6956 8.36232C16.6956 9.49666 16.4136 10.5651 15.9157 11.5014C15.7196 11.8702 15.49 12.2185 15.231 12.5423C15.2302 12.5433 15.2294 12.5443 15.2285 12.5453C15.2281 12.5459 15.2276 12.5465 15.2271 12.5471H15.231C15.231 12.5471 15.2305 12.5478 15.2295 12.5491Z" fill="#F59B5A"/>
</svg>
