<svg width="69" height="69" viewBox="0 0 69 69" fill="none" xmlns="http://www.w3.org/2000/svg">
<circle cx="34.5" cy="34.5" r="34.5" fill="white"/>
<path fill-rule="evenodd" clip-rule="evenodd" d="M32.5512 29.4393C30.9953 27.8536 28.4787 27.8536 26.9228 29.4393C25.3591 31.0329 25.3591 33.6226 26.9228 35.2162L33.1078 41.5198C33.5978 42.0192 34.4022 42.0192 34.8922 41.5198L41.0772 35.2162C42.6409 33.6226 42.6409 31.0329 41.0772 29.4393C39.5213 27.8536 37.0047 27.8536 35.4489 29.4393L34.5353 30.3703C34.3943 30.5141 34.2014 30.595 34 30.595C33.7986 30.595 33.6057 30.5141 33.4647 30.3703L32.5512 29.4393ZM33.6218 28.3887L34 28.7742L34.3782 28.3887C36.5221 26.2038 40.004 26.2038 42.1479 28.3887C44.284 30.5658 44.284 34.0897 42.1479 36.2668L35.9629 42.5703C34.8849 43.669 33.1151 43.669 32.0371 42.5703L25.8521 36.2668C23.716 34.0897 23.716 30.5658 25.8521 28.3887C27.996 26.2038 31.4779 26.2038 33.6218 28.3887Z" fill="#EE0F32"/>
</svg>
