<svg width="44" height="44" viewBox="0 0 44 44" fill="none" xmlns="http://www.w3.org/2000/svg">
<circle cx="22" cy="22" r="22" fill="#EE0F32"/>
<path fill-rule="evenodd" clip-rule="evenodd" d="M17.2 20.306L19.4577 17.0807C19.8107 16.5765 20 15.9758 20 15.3603V13.7963C20 12.5711 21.2002 11.7061 22.3625 12.0935C24.4572 12.7917 25.7326 14.9101 25.3696 17.0881L25 19.306L30.4394 19.3083C31.7402 19.3089 32.6944 20.5315 32.3788 21.7935L30.5682 29.0338C30.2343 30.3692 29.0344 31.306 27.6578 31.306H15C13.3431 31.306 12 29.9628 12 28.306V23.306C12 21.6491 13.3431 20.306 15 20.306H17.2ZM23.5204 19.0594C23.4479 19.4942 23.5704 19.9389 23.8553 20.2753C24.1401 20.6117 24.5585 20.8058 24.9994 20.806L30.4388 20.8083C30.764 20.8085 31.0025 21.1141 30.9236 21.4296L29.113 28.6699C28.946 29.3376 28.3461 29.806 27.6578 29.806H18V21.7788L20.6865 17.9409C21.216 17.1845 21.5 16.2836 21.5 15.3603V13.7963C21.5 13.595 21.6972 13.4529 21.8881 13.5165C23.2826 13.9813 24.1317 15.3916 23.8901 16.8415L23.5204 19.0594ZM16.5 21.806H15C14.1716 21.806 13.5 22.4776 13.5 23.306V28.306C13.5 29.1344 14.1716 29.806 15 29.806H16.5V21.806Z" fill="white"/>
</svg>
