<svg width="893" height="618" viewBox="0 0 893 618" fill="none" xmlns="http://www.w3.org/2000/svg">
<path opacity="0.3" fill-rule="evenodd" clip-rule="evenodd" d="M666.718 4.69187C793.044 25.7106 857.922 160.807 959.8 238.457C1058.29 313.528 1197.16 340.933 1252.98 451.531C1312.08 568.648 1283.32 706.13 1261.07 835.434C1235.12 986.25 1250.15 1188.53 1114.15 1258.48C973.576 1330.78 823.97 1156.97 666.718 1141.13C534.848 1127.85 402.049 1226.83 280.272 1174.48C148.601 1117.88 37.1619 997.011 5.88926 857.051C-24.5756 720.706 70.5586 594.938 121.735 464.952C169.109 344.621 194.34 210.94 293.105 127.529C395.8 40.7994 534.163 -17.3633 666.718 4.69187Z" fill="#DDD0CB"/>
</svg>
