<svg width="18" height="18" viewBox="0 0 18 18" fill="none" xmlns="http://www.w3.org/2000/svg">
<path fill-rule="evenodd" clip-rule="evenodd" d="M5.25 1.6875C5.56066 1.6875 5.8125 1.93934 5.8125 2.25V3H12.1875V2.25C12.1875 1.93934 12.4393 1.6875 12.75 1.6875C13.0607 1.6875 13.3125 1.93934 13.3125 2.25V3H14.25C15.4926 3 16.5 4.00736 16.5 5.25V14.25C16.5 15.4926 15.4926 16.5 14.25 16.5H3.75C2.50736 16.5 1.5 15.4926 1.5 14.25V5.25C1.5 4.00736 2.50736 3 3.75 3H4.6875V2.25C4.6875 1.93934 4.93934 1.6875 5.25 1.6875ZM12.1875 4.125V5.25C12.1875 5.56066 12.4393 5.8125 12.75 5.8125C13.0607 5.8125 13.3125 5.56066 13.3125 5.25V4.125H14.25C14.8713 4.125 15.375 4.62868 15.375 5.25V14.25C15.375 14.8713 14.8713 15.375 14.25 15.375H3.75C3.12868 15.375 2.625 14.8713 2.625 14.25V5.25C2.625 4.62868 3.12868 4.125 3.75 4.125H4.6875V5.25C4.6875 5.56066 4.93934 5.8125 5.25 5.8125C5.56066 5.8125 5.8125 5.56066 5.8125 5.25V4.125H12.1875Z" fill="white"/>
<path d="M9.5625 7.5C9.5625 7.18934 9.31066 6.9375 9 6.9375C8.68934 6.9375 8.4375 7.18934 8.4375 7.5L8.4375 9.1875H6.75C6.43934 9.1875 6.1875 9.43934 6.1875 9.75C6.1875 10.0607 6.43934 10.3125 6.75 10.3125H8.4375V12C8.4375 12.3107 8.68934 12.5625 9 12.5625C9.31066 12.5625 9.5625 12.3107 9.5625 12V10.3125H11.25C11.5607 10.3125 11.8125 10.0607 11.8125 9.75C11.8125 9.43934 11.5607 9.1875 11.25 9.1875H9.5625V7.5Z" fill="white"/>
</svg>
